:SAMPLES-PER-SECOND 30
:FULLY-SPECIFIED
:DEGREES
1516
root  13.6871 40.5428 14.7604 -171.257 73.763 -173.821
RightUpLeg  0.231561 -10.3782 -5.48659
RightLeg  6.33721 -27.8484 3.81115
RightFoot  -2.49757 -0.21317 2.5357
RightToes  0.000481921 0.542163 -0.142578
Spine  12.9955 2.17619 5.13552
Spine1  -0.454835 3.54224 -4.04527
HEad  -11.5104 -15.3615 -0.293169
LeftShoulder1  6.06257 -10.4678 -37.2629
LeftArm  -13.4642 24.5093 -14.4378
LeftForeArm  -147.245 -67.9295 -160.39
LeftHand  -0.25398 0.0180481 5.50724
RightShoulder  2.60379 5.41052 22.993
RightArm  -27.0354 26.4252 25.7008
RightForeArm  163.295 75.2148 135.511
RightHand  -0.593584 -10.4832 10.0004
LeftUpLeg  -5.87499 9.95396 13.685
LeftLeg  0.876314 9.98639 -2.89656
LeftFoot  7.5943 1.3038 -8.08718
LeftToes  1.06245e-005 4.65869e-005 -8.65517e-006
1517
root  13.4574 40.5677 14.5877 -172.41 74.2355 -174.935
RightUpLeg  -0.201515 -10.6669 -6.19115
RightLeg  6.65208 -27.1147 3.61144
RightFoot  -2.06786 -0.221183 2.55292
RightToes  0.000481921 0.542163 -0.142578
Spine  14.2024 2.73428 9.92822
Spine1  -1.12625 5.75156 -10.4095
HEad  -10.2912 -15.8704 -1.07176
LeftShoulder1  6.12025 -10.7008 -36.9704
LeftArm  -15.6023 19.6255 -16.8245
LeftForeArm  -142.305 -65.9151 -162.576
LeftHand  -0.25398 0.0180481 5.50724
RightShoulder  2.07089 4.82201 18.3128
RightArm  -29.3861 42.7586 23.5796
RightForeArm  54.1332 65.956 21.8203
RightHand  -0.127545 -1.98055 -1.3574
LeftUpLeg  -5.76307 9.76319 13.0764
LeftLeg  0.582375 10.7607 -3.218
LeftFoot  7.76502 1.23665 -7.6223
LeftToes  1.06245e-005 4.65869e-005 -8.65517e-006
1518
root  13.3417 40.5996 14.4146 -173.841 75.0263 -176.818
RightUpLeg  -0.731984 -10.8288 -6.92121
RightLeg  6.298 -26.2193 3.55444
RightFoot  -1.64281 -0.234433 2.62947
RightToes  0.000481921 0.542163 -0.142578
Spine  14.9731 3.05231 13.0485
Spine1  -2.73418 7.06586 -15.1572
HEad  -7.73811 -15.0248 -3.39254
LeftShoulder1  6.22542 -11.2659 -36.0631
LeftArm  -17.4374 18.5974 -20.0265
LeftForeArm  -141.881 -63.6905 -164.306
LeftHand  -0.25398 0.0180481 5.50724
RightShoulder  1.3096 3.62987 11.0876
RightArm  -31.0349 57.3616 26.9291
RightForeArm  38.1777 27.3024 2.46566
RightHand  -1.01596 6.00005 -11.4598
LeftUpLeg  -5.77598 9.6475 12.3768
LeftLeg  0.0740582 11.9989 -3.79816
LeftFoot  7.97243 1.18489 -7.24349
LeftToes  1.06245e-005 4.65869e-005 -8.65517e-006
1519
root  13.424 40.6349 14.2552 -175.544 74.1884 -179.353
RightUpLeg  -0.696662 -10.8499 -7.53167
RightLeg  5.15263 -27.0557 3.63725
RightFoot  -1.26033 -0.285063 3.13097
RightToes  0.000481921 0.542163 -0.142578
Spine  14.7744 3.20951 13.3011
Spine1  -4.70949 7.09095 -16.4799
HEad  -5.17415 -13.9491 -5.22753
LeftShoulder1  6.25635 -11.6511 -35.2127
LeftArm  -18.3186 19.8358 -24.2101
LeftForeArm  -142.728 -61.3394 -165.777
LeftHand  -0.25398 0.0180481 5.50724
RightShoulder  0.685822 2.08055 4.52757
RightArm  -31.5317 62.125 36.4905
RightForeArm  37.4913 7.98302 -0.193739
RightHand  -1.37001 7.68316 -12.5972
LeftUpLeg  -6.15627 9.25451 11.4638
LeftLeg  -0.87767 12.2009 -4.36415
LeftFoot  8.36371 1.19494 -7.1682
LeftToes  1.06245e-005 4.65869e-005 -8.65517e-006
1520
root  13.6581 40.6627 14.0749 -176.369 71.6214 179.274
RightUpLeg  0.24174 -10.8169 -7.92278
RightLeg  3.93674 -29.5215 3.83615
RightFoot  -0.918857 -0.376182 4.05269
RightToes  0.000481921 0.542163 -0.142578
Spine  13.5787 3.07449 11.0624
Spine1  -5.53278 6.10695 -14.0829
HEad  -3.98148 -13.1532 -4.90741
LeftShoulder1  6.3695 -11.6937 -35.8305
LeftArm  -18.1906 21.7381 -28.1322
LeftForeArm  -142.018 -58.4604 -167.424
LeftHand  -0.25398 0.0180481 5.50724
RightShoulder  0.607338 1.21071 5.14234
RightArm  -28.6865 57.2428 44.5545
RightForeArm  34.4169 17.3005 1.43632
RightHand  -1.47295 8.66548 -12.5608
LeftUpLeg  -6.52088 8.56001 10.5853
LeftLeg  -1.77665 10.9706 -4.44753
LeftFoot  8.57877 1.219 -7.23456
LeftToes  1.06245e-005 4.65869e-005 -8.65517e-006
1521
root  13.9194 40.6786 13.8398 -176.763 69.527 179.365
RightUpLeg  1.92401 -10.9822 -8.34363
RightLeg  3.49323 -31.1286 4.08551
RightFoot  -0.736838 -0.457118 4.86906
RightToes  0.000481921 0.542163 -0.142578
Spine  12.5128 2.72894 8.19415
Spine1  -4.6572 4.99992 -10.2265
HEad  -4.42859 -12.3119 -3.39781
LeftShoulder1  6.61282 -11.5426 -37.8049
LeftArm  -17.4364 23.6622 -30.5192
LeftForeArm  -143.364 -55.8134 -168.635
LeftHand  -0.25398 0.0180481 5.50724
RightShoulder  1.13246 2.12741 12.8714
RightArm  -21.684 47.2077 46.2145
RightForeArm  30.4152 44.3109 9.36535
RightHand  -1.67287 9.48454 -13.4793
LeftUpLeg  -5.97966 8.00652 10.104
LeftLeg  -1.89009 9.62878 -4.04289
LeftFoot  8.11092 1.16494 -7.07817
LeftToes  1.06245e-005 4.65869e-005 -8.65517e-006
1522
root  14.1551 40.6753 13.5627 -178.068 69.2538 179.363
RightUpLeg  3.73897 -11.4516 -9.20888
RightLeg  4.03498 -30.5995 4.05193
RightFoot  -0.889885 -0.491763 5.30623
RightToes  0.000481921 0.542163 -0.142578
Spine  12.073 2.57605 6.26901
Spine1  -2.82787 4.46378 -7.53406
HEad  -5.5924 -11.3466 -2.83604
LeftShoulder1  6.79798 -11.3591 -39.5127
LeftArm  -16.1073 25.0066 -31.4312
LeftForeArm  -148.549 -55.0119 -168.683
LeftHand  -0.25398 0.0180481 5.50724
RightShoulder  2.20864 4.48577 21.299
RightArm  -17.6838 35.9676 44.2157
RightForeArm  45.8785 70.9521 30.5123
RightHand  -1.42056 7.84241 -12.8365
LeftUpLeg  -4.50684 7.79327 9.86118
LeftLeg  -1.07691 9.3243 -3.60927
LeftFoot  7.01326 1.03743 -6.68076
LeftToes  1.06245e-005 4.65869e-005 -8.65517e-006
1523
root  14.4109 40.6556 13.2814 179.536 69.5864 178.134
RightUpLeg  5.19309 -11.9924 -10.4527
RightLeg  4.97837 -29.63 3.59074
RightFoot  -1.23745 -0.512969 5.70313
RightToes  0.000481921 0.542163 -0.142578
Spine  11.3841 2.62074 5.00969
Spine1  -0.73263 4.28042 -5.92801
HEad  -6.62709 -10.6758 -4.0258
LeftShoulder1  6.81322 -11.1036 -40.3669
LeftArm  -13.8684 25.0497 -31.1765
LeftForeArm  -153.113 -56.1789 -167.863
LeftHand  -0.25398 0.0180481 5.50724
RightShoulder  3.48728 6.74822 28.0306
RightArm  -16.5868 23.0467 43.0068
RightForeArm  139.846 79.2317 121.1
RightHand  -0.990676 5.38233 -11.0044
LeftUpLeg  -2.9963 7.67594 9.40429
LeftLeg  -0.0452188 9.45452 -3.49159
LeftFoot  5.91764 0.92628 -6.33863
LeftToes  1.06245e-005 4.65869e-005 -8.65517e-006
1524
root  14.7136 40.6401 12.999 177.303 69.1732 176.433
RightUpLeg  6.28076 -12.4533 -11.642
RightLeg  5.68594 -29.6793 3.07333
RightFoot  -1.36133 -0.569022 6.401
RightToes  0.000481921 0.542163 -0.142578
Spine  9.58735 2.42906 3.39746
Spine1  1.60299 3.63085 -3.70508
HEad  -7.47233 -9.9546 -6.07197
LeftShoulder1  6.72052 -10.6334 -41.2089
LeftArm  -11.3311 24.0911 -30.0558
LeftForeArm  -152.842 -57.5553 -167.219
LeftHand  -0.25398 0.0180481 5.50724
RightShoulder  4.53845 7.95205 33.721
RightArm  -15.8688 8.47067 42.4224
RightForeArm  -172.412 65.2913 161.432
RightHand  -0.760382 4.77411 -9.06885
LeftUpLeg  -2.12753 7.40991 8.7047
LeftLeg  0.732448 9.17434 -3.53228
LeftFoot  5.08209 0.856088 -6.14385
LeftToes  1.06245e-005 4.65869e-005 -8.65517e-006
1525
root  15.013 40.6481 12.6853 176.252 68.7754 175.607
RightUpLeg  7.217 -12.762 -12.5387
RightLeg  5.85146 -29.766 2.88936
RightFoot  -0.936898 -0.669628 7.27088
RightToes  0.000481921 0.542163 -0.142578
Spine  7.26154 1.71993 1.48189
Spine1  3.69091 2.22411 -0.846739
HEad  -7.98372 -7.95888 -8.04157
LeftShoulder1  6.50621 -9.89537 -42.1493
LeftArm  -10.1364 23.8596 -29.0558
LeftForeArm  -149.72 -57.5412 -167.425
LeftHand  -0.25398 0.0180481 5.50724
RightShoulder  4.94087 8.00213 36.9496
RightArm  -13.8441 -4.08334 42.0534
RightForeArm  -166.248 57.5772 166.475
RightHand  -0.910266 6.42237 -9.32379
LeftUpLeg  -1.5225 7.1055 8.1295
LeftLeg  1.25532 9.07013 -3.46147
LeftFoot  4.31254 0.783592 -5.88767
LeftToes  1.06245e-005 4.65869e-005 -8.65517e-006
1526
root  15.2555 40.68 12.3338 175.615 69.8232 175.294
RightUpLeg  7.9907 -12.9321 -13.3575
RightLeg  5.54528 -28.2984 3.01769
RightFoot  -0.119936 -0.784337 7.96333
RightToes  0.000481921 0.542163 -0.142578
Spine  5.61666 0.772775 0.0466756
Spine1  4.4928 0.726847 1.11482
HEad  -7.73839 -4.54119 -9.40555
LeftShoulder1  6.18762 -9.16311 -42.4089
LeftArm  -10.8532 25.4232 -28.7924
LeftForeArm  -149.843 -56.3467 -167.995
LeftHand  -0.25398 0.0180481 5.50724
RightShoulder  4.6535 7.4612 36.4274
RightArm  -10.6552 -12.0076 41.1478
RightForeArm  -174.183 58.8663 164.816
RightHand  -1.01692 6.83772 -10.0889
LeftUpLeg  -0.482741 7.02938 7.82408
LeftLeg  1.52131 10.1761 -3.40031
LeftFoot  3.55025 0.695581 -5.48553
LeftToes  1.06245e-005 4.65869e-005 -8.65517e-006
1527
root  15.4451 40.7159 11.9834 174.228 72.3297 174.176
RightUpLeg  8.2376 -13.0585 -14.3171
RightLeg  5.1907 -25.3936 3.0747
RightFoot  0.635422 -0.875509 8.37437
RightToes  0.000481921 0.542163 -0.142578
Spine  4.63117 0.175573 -0.668921
Spine1  4.12483 -0.0521604 1.59169
HEad  -6.68353 -1.23057 -9.67246
LeftShoulder1  6.02158 -8.90469 -42.1125
LeftArm  -12.1984 27.4122 -28.4459
LeftForeArm  -155.606 -55.2303 -168.143
LeftHand  -0.25398 0.0180481 5.50724
RightShoulder  4.19446 6.9427 34.2042
RightArm  -6.88748 -16.2011 37.9763
RightForeArm  -178.985 63.4681 161.4
RightHand  -0.606618 4.14789 -7.40467
LeftUpLeg  0.921965 7.16392 7.52804
LeftLeg  1.42489 12.5115 -3.62631
LeftFoot  2.97061 0.629032 -5.15354
LeftToes  1.06245e-005 4.65869e-005 -8.65517e-006
1528
root  15.6051 40.7304 11.6733 171.551 75.3896 171.415
RightUpLeg  7.66768 -13.1922 -15.2851
RightLeg  5.19399 -22.1783 2.81984
RightFoot  1.00981 -0.925748 8.60457
RightToes  0.000481921 0.542163 -0.142578
Spine  3.47709 0.187356 -0.836486
Spine1  3.91562 0.0225343 1.20322
HEad  -5.60774 0.675563 -8.83273
LeftShoulder1  6.1196 -9.13057 -42.0288
LeftArm  -12.7557 27.6548 -27.1813
LeftForeArm  -163.199 -54.8161 -167.817
LeftHand  -0.25398 0.0180481 5.50724
RightShoulder  4.0233 6.77004 33.2175
RightArm  -3.31187 -18.8656 31.857
RightForeArm  -166.946 64.8624 161.381
RightHand  -0.0908989 2.30508 -1.94556
LeftUpLeg  2.10686 7.28708 7.01631
LeftLeg  1.10583 15.4162 -4.0963
LeftFoot  2.52907 0.598516 -5.04609
LeftToes  1.06245e-005 4.65869e-005 -8.65517e-006
1529
root  15.7375 40.711 11.4019 167.347 78.4938 166.883
RightUpLeg  6.54866 -13.3097 -16.0658
RightLeg  5.46269 -19.099 2.41931
RightFoot  1.02844 -0.935653 8.68288
RightToes  0.000481921 0.542163 -0.142578
Spine  2.18085 0.492343 -0.603742
Spine1  4.3839 0.435824 0.672488
HEad  -5.56168 1.8868 -7.88784
LeftShoulder1  6.16492 -9.21371 -42.067
LeftArm  -12.7933 25.9581 -25.751
LeftForeArm  -167.014 -54.5631 -167.663
LeftHand  -0.25398 0.0180481 5.50724
RightShoulder  4.04621 6.77326 33.428
RightArm  -0.554548 -21.2878 24.8065
RightForeArm  -151.976 61.4367 165.072
RightHand  -0.0973062 5.08949 -1.32237
LeftUpLeg  2.84421 7.31103 6.35733
LeftLeg  0.959883 18.495 -4.50029
LeftFoot  1.93549 0.575846 -5.04767
LeftToes  1.06245e-005 4.65869e-005 -8.65517e-006
1530
root  15.8441 40.6711 11.1463 160.635 81.4867 159.946
RightUpLeg  5.54009 -13.4018 -16.6984
RightLeg  5.48927 -16.0419 2.17386
RightFoot  0.972298 -0.921098 8.58483
RightToes  0.000481921 0.542163 -0.142578
Spine  1.48774 0.508777 -0.267805
Spine1  4.71715 0.494836 0.337565
HEad  -6.77756 3.96896 -7.75816
LeftShoulder1  5.94299 -8.87028 -41.643
LeftArm  -13.7049 24.2359 -25.0323
LeftForeArm  -165.351 -53.3579 -168.306
LeftHand  -0.25398 0.0180481 5.50724
RightShoulder  3.82594 6.45634 32.4506
RightArm  2.09233 -22.8598 20.4088
RightForeArm  -156.953 56.9963 167.226
RightHand  -0.622999 6.89485 -6.31564
LeftUpLeg  3.43151 7.28956 5.69962
LeftLeg  1.07446 21.5919 -4.70942
LeftFoot  1.16975 0.54513 -5.0369
LeftToes  1.06245e-005 4.65869e-005 -8.65517e-006
